<?xml version="1.0" encoding="UTF-8" standalone="no"?>
<!-- Created with Inkscape (http://www.inkscape.org/) -->

<svg
   xmlns:dc="http://purl.org/dc/elements/1.1/"
   xmlns:cc="http://creativecommons.org/ns#"
   xmlns:rdf="http://www.w3.org/1999/02/22-rdf-syntax-ns#"
   xmlns:svg="http://www.w3.org/2000/svg"
   xmlns="http://www.w3.org/2000/svg"
   xmlns:sodipodi="http://sodipodi.sourceforge.net/DTD/sodipodi-0.dtd"
   xmlns:inkscape="http://www.inkscape.org/namespaces/inkscape"
   width="301.18109"
   height="301.18109"
   id="svg2"
   version="1.1"
   inkscape:version="0.48.4 r9939"
   sodipodi:docname="Fig7.svg"
   inkscape:export-filename="C:\Users\Vanderlei\Google Drive\Magnetization_estimation_spherical_bodies\Submitted\Figures\Fig7.png"
   inkscape:export-xdpi="600"
   inkscape:export-ydpi="600">
  <defs
     id="defs4">
    <inkscape:path-effect
       effect="spiro"
       id="path-effect5294"
       is_visible="true" />
    <inkscape:path-effect
       effect="spiro"
       id="path-effect5194"
       is_visible="true" />
    <marker
       inkscape:stockid="Arrow2Mend"
       orient="auto"
       refY="0.0"
       refX="0.0"
       id="Arrow2Mend"
       style="overflow:visible;">
      <path
         id="path3833"
         style="fill-rule:evenodd;stroke-width:0.62500000;stroke-linejoin:round;"
         d="M 8.7185878,4.0337352 L -2.2072895,0.016013256 L 8.7185884,-4.0017078 C 6.9730900,-1.6296469 6.9831476,1.6157441 8.7185878,4.0337352 z "
         transform="scale(0.6) rotate(180) translate(0,0)" />
    </marker>
    <marker
       inkscape:stockid="Arrow1Lend"
       orient="auto"
       refY="0.0"
       refX="0.0"
       id="Arrow1Lend"
       style="overflow:visible;">
      <path
         id="path3809"
         d="M 0.0,0.0 L 5.0,-5.0 L -12.5,0.0 L 5.0,5.0 L 0.0,0.0 z "
         style="fill-rule:evenodd;stroke:#000000;stroke-width:1.0pt;"
         transform="scale(0.8) rotate(180) translate(12.5,0)" />
    </marker>
    <marker
       inkscape:stockid="Arrow1Mend"
       orient="auto"
       refY="0.0"
       refX="0.0"
       id="Arrow1Mend"
       style="overflow:visible;">
      <path
         id="path3815"
         d="M 0.0,0.0 L 5.0,-5.0 L -12.5,0.0 L 5.0,5.0 L 0.0,0.0 z "
         style="fill-rule:evenodd;stroke:#000000;stroke-width:1.0pt;"
         transform="scale(0.4) rotate(180) translate(10,0)" />
    </marker>
    <marker
       inkscape:stockid="Arrow2Lend"
       orient="auto"
       refY="0.0"
       refX="0.0"
       id="Arrow2Lend"
       style="overflow:visible;">
      <path
         id="path3827"
         style="fill-rule:evenodd;stroke-width:0.62500000;stroke-linejoin:round;"
         d="M 8.7185878,4.0337352 L -2.2072895,0.016013256 L 8.7185884,-4.0017078 C 6.9730900,-1.6296469 6.9831476,1.6157441 8.7185878,4.0337352 z "
         transform="scale(1.1) rotate(180) translate(1,0)" />
    </marker>
    <inkscape:path-effect
       effect="spiro"
       id="path-effect3800"
       is_visible="true" />
    <inkscape:perspective
       sodipodi:type="inkscape:persp3d"
       inkscape:vp_x="0 : 150.59055 : 1"
       inkscape:vp_y="0 : 1000 : 0"
       inkscape:vp_z="301.18109 : 150.59055 : 1"
       inkscape:persp3d-origin="150.59055 : 100.3937 : 1"
       id="perspective3755" />
    <marker
       inkscape:stockid="Arrow2Mend"
       orient="auto"
       refY="0"
       refX="0"
       id="Arrow2Mend-4"
       style="overflow:visible">
      <path
         inkscape:connector-curvature="0"
         id="path3833-0"
         style="fill-rule:evenodd;stroke-width:0.625;stroke-linejoin:round"
         d="M 8.7185878,4.0337352 -2.2072895,0.01601326 8.7185884,-4.0017078 c -1.7454984,2.3720609 -1.7354408,5.6174519 -6e-7,8.035443 z"
         transform="scale(-0.6,-0.6)" />
    </marker>
    <inkscape:path-effect
       effect="spiro"
       id="path-effect3800-9"
       is_visible="true" />
    <marker
       inkscape:stockid="Arrow2Mend"
       orient="auto"
       refY="0"
       refX="0"
       id="Arrow2Mend-8"
       style="overflow:visible">
      <path
         inkscape:connector-curvature="0"
         id="path3833-8"
         style="fill-rule:evenodd;stroke-width:0.625;stroke-linejoin:round"
         d="M 8.7185878,4.0337352 -2.2072895,0.01601326 8.7185884,-4.0017078 c -1.7454984,2.3720609 -1.7354408,5.6174519 -6e-7,8.035443 z"
         transform="scale(-0.6,-0.6)" />
    </marker>
    <inkscape:path-effect
       effect="spiro"
       id="path-effect3800-2"
       is_visible="true" />
    <marker
       inkscape:stockid="Arrow2Mend"
       orient="auto"
       refY="0"
       refX="0"
       id="Arrow2Mend-5"
       style="overflow:visible">
      <path
         inkscape:connector-curvature="0"
         id="path3833-1"
         style="fill-rule:evenodd;stroke-width:0.625;stroke-linejoin:round"
         d="M 8.7185878,4.0337352 -2.2072895,0.01601326 8.7185884,-4.0017078 c -1.7454984,2.3720609 -1.7354408,5.6174519 -6e-7,8.035443 z"
         transform="scale(-0.6,-0.6)" />
    </marker>
    <inkscape:path-effect
       effect="spiro"
       id="path-effect3800-9-7"
       is_visible="true" />
    <inkscape:path-effect
       effect="spiro"
       id="path-effect5194-4"
       is_visible="true" />
    <marker
       inkscape:stockid="Arrow2Mend"
       orient="auto"
       refY="0"
       refX="0"
       id="Arrow2Mend-1"
       style="overflow:visible">
      <path
         inkscape:connector-curvature="0"
         id="path3833-7"
         style="fill-rule:evenodd;stroke-width:0.625;stroke-linejoin:round"
         d="M 8.7185878,4.0337352 -2.2072895,0.01601326 8.7185884,-4.0017078 c -1.7454984,2.3720609 -1.7354408,5.6174519 -6e-7,8.035443 z"
         transform="scale(-0.6,-0.6)" />
    </marker>
    <inkscape:path-effect
       effect="spiro"
       id="path-effect3800-9-7-4"
       is_visible="true" />
    <marker
       inkscape:stockid="Arrow2Mend"
       orient="auto"
       refY="0"
       refX="0"
       id="Arrow2Mend-51"
       style="overflow:visible">
      <path
         inkscape:connector-curvature="0"
         id="path3833-71"
         style="fill-rule:evenodd;stroke-width:0.625;stroke-linejoin:round"
         d="M 8.7185878,4.0337352 -2.2072895,0.01601326 8.7185884,-4.0017078 c -1.7454984,2.3720609 -1.7354408,5.6174519 -6e-7,8.035443 z"
         transform="scale(-0.6,-0.6)" />
    </marker>
    <inkscape:path-effect
       effect="spiro"
       id="path-effect3800-1"
       is_visible="true" />
    <inkscape:path-effect
       effect="spiro"
       id="path-effect3800-1-3"
       is_visible="true" />
    <inkscape:path-effect
       effect="spiro"
       id="path-effect3800-1-2"
       is_visible="true" />
    <inkscape:path-effect
       effect="spiro"
       id="path-effect3800-1-2-9"
       is_visible="true" />
  </defs>
  <sodipodi:namedview
     id="base"
     pagecolor="#ffffff"
     bordercolor="#666666"
     borderopacity="1.0"
     inkscape:pageopacity="0.0"
     inkscape:pageshadow="2"
     inkscape:zoom="2.7591374"
     inkscape:cx="25.717862"
     inkscape:cy="143.59231"
     inkscape:document-units="cm"
     inkscape:current-layer="layer1"
     showgrid="false"
     units="cm"
     inkscape:window-width="1920"
     inkscape:window-height="1018"
     inkscape:window-x="-8"
     inkscape:window-y="-8"
     inkscape:window-maximized="1" />
  <metadata
     id="metadata7">
    <rdf:RDF>
      <cc:Work
         rdf:about="">
        <dc:format>image/svg+xml</dc:format>
        <dc:type
           rdf:resource="http://purl.org/dc/dcmitype/StillImage" />
        <dc:title></dc:title>
      </cc:Work>
    </rdf:RDF>
  </metadata>
  <g
     inkscape:label="Layer 1"
     inkscape:groupmode="layer"
     id="layer1"
     transform="translate(0,-751.18048)">
    <g
       id="g4695"
       transform="translate(0,6)">
      <path
         inkscape:connector-curvature="0"
         inkscape:original-d="m 30.169139,863.64965 c 243.867211,0 243.867211,0 243.867211,0"
         inkscape:path-effect="#path-effect3800"
         id="path3798"
         d="m 30.169139,863.64965 243.867211,0"
         style="fill:none;stroke:#000000;stroke-width:1.77165353;stroke-linecap:butt;stroke-linejoin:miter;stroke-miterlimit:4;stroke-opacity:1;stroke-dasharray:none;marker-end:url(#Arrow2Mend)" />
      <path
         inkscape:connector-curvature="0"
         inkscape:original-d="m 30.953708,864.4156 c 0,142.1575 0,142.1575 0,142.1575"
         inkscape:path-effect="#path-effect3800-9"
         id="path3798-4"
         d="m 30.953708,864.4156 0,142.1575"
         style="fill:none;stroke:#000000;stroke-width:1.77165353;stroke-linecap:butt;stroke-linejoin:miter;stroke-miterlimit:4;stroke-opacity:1;stroke-dasharray:none;marker-end:url(#Arrow2Mend)" />
      <path
         inkscape:connector-curvature="0"
         inkscape:original-d="M 29.886122,864.64743 C 131.32642,765.05523 131.32642,765.05523 131.32642,765.05523"
         inkscape:path-effect="#path-effect3800-9-7"
         id="path3798-4-1"
         d="M 29.886122,864.64743 131.32642,765.05523"
         style="fill:none;stroke:#000000;stroke-width:1.77165353;stroke-linecap:butt;stroke-linejoin:miter;stroke-miterlimit:4;stroke-opacity:1;stroke-dasharray:none;marker-end:url(#Arrow2Mend)" />
      <text
         sodipodi:linespacing="125%"
         id="text5217"
         y="766.18561"
         x="107.93773"
         style="font-size:12px;font-style:normal;font-variant:normal;font-weight:normal;font-stretch:normal;line-height:125%;letter-spacing:0px;word-spacing:0px;fill:#000000;fill-opacity:1;stroke:none;font-family:Arial;-inkscape-font-specification:Sans"
         xml:space="preserve"><tspan
           style="font-size:22px;font-style:italic;font-family:Times New Roman;-inkscape-font-specification:Times New Roman"
           y="766.18561"
           x="107.93773"
           id="tspan5219"
           sodipodi:role="line">x</tspan></text>
      <text
         sodipodi:linespacing="125%"
         id="text5217-3"
         y="881.17657"
         x="259.38751"
         style="font-size:12px;font-style:normal;font-variant:normal;font-weight:normal;font-stretch:normal;line-height:125%;letter-spacing:0px;word-spacing:0px;fill:#000000;fill-opacity:1;stroke:none;font-family:Arial;-inkscape-font-specification:Sans"
         xml:space="preserve"><tspan
           style="font-size:22px;font-style:italic;font-family:Times New Roman;-inkscape-font-specification:Times New Roman"
           y="881.17657"
           x="259.38751"
           id="tspan5219-2"
           sodipodi:role="line">y</tspan></text>
      <text
         sodipodi:linespacing="125%"
         id="text5217-2"
         y="999.55981"
         x="14.724465"
         style="font-size:12px;font-style:normal;font-variant:normal;font-weight:normal;font-stretch:normal;line-height:125%;letter-spacing:0px;word-spacing:0px;fill:#000000;fill-opacity:1;stroke:none;font-family:Arial;-inkscape-font-specification:Sans"
         xml:space="preserve"><tspan
           style="font-size:22px;font-style:italic;font-family:Times New Roman;-inkscape-font-specification:Times New Roman"
           y="999.55981"
           x="14.724465"
           id="tspan5219-1"
           sodipodi:role="line">z</tspan></text>
    </g>
    <g
       id="g4811"
       transform="translate(239.93006,26.470791)">
      <g
         transform="translate(46.009601,-72.43215)"
         id="g4793">
        <path
           style="fill:none;stroke:#000000;stroke-width:1.0629921;stroke-linecap:butt;stroke-linejoin:miter;stroke-miterlimit:4;stroke-opacity:1;stroke-dasharray:2.12598425, 2.12598425;stroke-dashoffset:0;marker-end:none"
           d="m -175.89194,1024.9717 79.56331,-77.71519"
           id="path3798-4-1-0"
           inkscape:path-effect="#path-effect3800-9-7-4"
           inkscape:original-d="m -175.89194,1024.9717 c 79.56331,-77.71519 79.56331,-77.71519 79.56331,-77.71519"
           inkscape:connector-curvature="0" />
        <path
           sodipodi:type="arc"
           style="fill:#ffffff;stroke:#000000;stroke-width:1.28282738;stroke-linecap:round;stroke-linejoin:miter;stroke-miterlimit:4;stroke-opacity:1;stroke-dasharray:none;stroke-dashoffset:0"
           id="path5160-1-9"
           sodipodi:cx="151.75116"
           sodipodi:cy="88.207176"
           sodipodi:rx="2.6113968"
           sodipodi:ry="2.3212416"
           d="m 154.36256,88.207176 c 0,1.281987 -1.16917,2.321242 -2.6114,2.321242 -1.44223,0 -2.6114,-1.039255 -2.6114,-2.321242 0,-1.281986 1.16917,-2.321241 2.6114,-2.321241 1.44223,0 2.6114,1.039255 2.6114,2.321241 z"
           transform="matrix(1.0937925,0,0,1.2087447,-313.75505,890.51215)" />
        <path
           sodipodi:type="arc"
           style="fill:#ffffff;stroke:#000000;stroke-width:1.28282738;stroke-linecap:round;stroke-linejoin:miter;stroke-miterlimit:4;stroke-opacity:1;stroke-dasharray:none;stroke-dashoffset:0"
           id="path5160-1-9-4"
           sodipodi:cx="151.75116"
           sodipodi:cy="88.207176"
           sodipodi:rx="2.6113968"
           sodipodi:ry="2.3212416"
           d="m 154.36256,88.207176 c 0,1.281987 -1.16917,2.321242 -2.6114,2.321242 -1.44223,0 -2.6114,-1.039255 -2.6114,-2.321242 0,-1.281986 1.16917,-2.321241 2.6114,-2.321241 1.44223,0 2.6114,1.039255 2.6114,2.321241 z"
           transform="matrix(1.0937925,0,0,1.2087447,-324.1355,900.58076)" />
        <path
           sodipodi:type="arc"
           style="fill:#ffffff;stroke:#000000;stroke-width:1.28282738;stroke-linecap:round;stroke-linejoin:miter;stroke-miterlimit:4;stroke-opacity:1;stroke-dasharray:none;stroke-dashoffset:0"
           id="path5160-1-9-8"
           sodipodi:cx="151.75116"
           sodipodi:cy="88.207176"
           sodipodi:rx="2.6113968"
           sodipodi:ry="2.3212416"
           d="m 154.36256,88.207176 c 0,1.281987 -1.16917,2.321242 -2.6114,2.321242 -1.44223,0 -2.6114,-1.039255 -2.6114,-2.321242 0,-1.281986 1.16917,-2.321241 2.6114,-2.321241 1.44223,0 2.6114,1.039255 2.6114,2.321241 z"
           transform="matrix(1.0937925,0,0,1.2087447,-334.68577,910.58076)" />
        <path
           sodipodi:type="arc"
           style="fill:#ffffff;stroke:#000000;stroke-width:1.28282738;stroke-linecap:round;stroke-linejoin:miter;stroke-miterlimit:4;stroke-opacity:1;stroke-dasharray:none;stroke-dashoffset:0"
           id="path5160-1-9-82"
           sodipodi:cx="151.75116"
           sodipodi:cy="88.207176"
           sodipodi:rx="2.6113968"
           sodipodi:ry="2.3212416"
           d="m 154.36256,88.207176 c 0,1.281987 -1.16917,2.321242 -2.6114,2.321242 -1.44223,0 -2.6114,-1.039255 -2.6114,-2.321242 0,-1.281986 1.16917,-2.321241 2.6114,-2.321241 1.44223,0 2.6114,1.039255 2.6114,2.321241 z"
           transform="matrix(1.0937925,0,0,1.2087447,-271.86884,849.48022)" />
        <path
           sodipodi:type="arc"
           style="fill:#ffffff;stroke:#000000;stroke-width:1.28282738;stroke-linecap:round;stroke-linejoin:miter;stroke-miterlimit:4;stroke-opacity:1;stroke-dasharray:none;stroke-dashoffset:0"
           id="path5160-1-9-4-4"
           sodipodi:cx="151.75116"
           sodipodi:cy="88.207176"
           sodipodi:rx="2.6113968"
           sodipodi:ry="2.3212416"
           d="m 154.36256,88.207176 c 0,1.281987 -1.16917,2.321242 -2.6114,2.321242 -1.44223,0 -2.6114,-1.039255 -2.6114,-2.321242 0,-1.281986 1.16917,-2.321241 2.6114,-2.321241 1.44223,0 2.6114,1.039255 2.6114,2.321241 z"
           transform="matrix(1.0937925,0,0,1.2087447,-282.24929,859.91126)" />
        <path
           sodipodi:type="arc"
           style="fill:#ffffff;stroke:#000000;stroke-width:1.28282738;stroke-linecap:round;stroke-linejoin:miter;stroke-miterlimit:4;stroke-opacity:1;stroke-dasharray:none;stroke-dashoffset:0"
           id="path5160-1-9-8-5"
           sodipodi:cx="151.75116"
           sodipodi:cy="88.207176"
           sodipodi:rx="2.6113968"
           sodipodi:ry="2.3212416"
           d="m 154.36256,88.207176 c 0,1.281987 -1.16917,2.321242 -2.6114,2.321242 -1.44223,0 -2.6114,-1.039255 -2.6114,-2.321242 0,-1.281986 1.16917,-2.321241 2.6114,-2.321241 1.44223,0 2.6114,1.039255 2.6114,2.321241 z"
           transform="matrix(1.0937925,0,0,1.2087447,-292.79956,870.46154)" />
      </g>
      <g
         transform="translate(25.048727,108.27793)"
         id="g4802">
        <path
           style="fill:none;stroke:#000000;stroke-width:1.0629921;stroke-linecap:butt;stroke-linejoin:miter;stroke-miterlimit:4;stroke-opacity:1;stroke-dasharray:2.12598425, 2.12598425;stroke-dashoffset:0;marker-end:none"
           d="m -177.09051,805.67406 123.882198,0"
           id="path3798-5"
           inkscape:path-effect="#path-effect3800-1"
           inkscape:original-d="m -177.09051,805.67406 c 123.882198,0 123.882198,0 123.882198,0"
           inkscape:connector-curvature="0" />
        <path
           sodipodi:type="arc"
           style="fill:#ffffff;stroke:#000000;stroke-width:1.28282738;stroke-linecap:round;stroke-linejoin:miter;stroke-miterlimit:4;stroke-opacity:1;stroke-dasharray:none;stroke-dashoffset:0"
           id="path5160-1-9-8-5-2"
           sodipodi:cx="151.75116"
           sodipodi:cy="88.207176"
           sodipodi:rx="2.6113968"
           sodipodi:ry="2.3212416"
           d="m 154.36256,88.207176 c 0,1.281987 -1.16917,2.321242 -2.6114,2.321242 -1.44223,0 -2.6114,-1.039255 -2.6114,-2.321242 0,-1.281986 1.16917,-2.321241 2.6114,-2.321241 1.44223,0 2.6114,1.039255 2.6114,2.321241 z"
           transform="matrix(1.1041572,0,0,1.2074181,-302.57036,698.90108)" />
        <path
           sodipodi:type="arc"
           style="fill:#ffffff;stroke:#000000;stroke-width:1.28282738;stroke-linecap:round;stroke-linejoin:miter;stroke-miterlimit:4;stroke-opacity:1;stroke-dasharray:none;stroke-dashoffset:0"
           id="path5160-1-9-8-5-2-7"
           sodipodi:cx="151.75116"
           sodipodi:cy="88.207176"
           sodipodi:rx="2.6113968"
           sodipodi:ry="2.3212416"
           d="m 154.36256,88.207176 c 0,1.281987 -1.16917,2.321242 -2.6114,2.321242 -1.44223,0 -2.6114,-1.039255 -2.6114,-2.321242 0,-1.281986 1.16917,-2.321241 2.6114,-2.321241 1.44223,0 2.6114,1.039255 2.6114,2.321241 z"
           transform="matrix(1.1041572,0,0,1.2074181,-318.1781,698.90108)" />
        <path
           sodipodi:type="arc"
           style="fill:#ffffff;stroke:#000000;stroke-width:1.28282738;stroke-linecap:round;stroke-linejoin:miter;stroke-miterlimit:4;stroke-opacity:1;stroke-dasharray:none;stroke-dashoffset:0"
           id="path5160-1-9-8-5-2-7-6"
           sodipodi:cx="151.75116"
           sodipodi:cy="88.207176"
           sodipodi:rx="2.6113968"
           sodipodi:ry="2.3212416"
           d="m 154.36256,88.207176 c 0,1.281987 -1.16917,2.321242 -2.6114,2.321242 -1.44223,0 -2.6114,-1.039255 -2.6114,-2.321242 0,-1.281986 1.16917,-2.321241 2.6114,-2.321241 1.44223,0 2.6114,1.039255 2.6114,2.321241 z"
           transform="matrix(1.0764307,0,0,1.2109845,-329.65899,698.5865)" />
        <path
           sodipodi:type="arc"
           style="fill:#ffffff;stroke:#000000;stroke-width:1.28282738;stroke-linecap:round;stroke-linejoin:miter;stroke-miterlimit:4;stroke-opacity:1;stroke-dasharray:none;stroke-dashoffset:0"
           id="path5160-1-9-8-5-2-1"
           sodipodi:cx="151.75116"
           sodipodi:cy="88.207176"
           sodipodi:rx="2.6113968"
           sodipodi:ry="2.3212416"
           d="m 154.36256,88.207176 c 0,1.281987 -1.16917,2.321242 -2.6114,2.321242 -1.44223,0 -2.6114,-1.039255 -2.6114,-2.321242 0,-1.281986 1.16917,-2.321241 2.6114,-2.321241 1.44223,0 2.6114,1.039255 2.6114,2.321241 z"
           transform="matrix(1.1041572,0,0,1.2074181,-236.70797,698.90108)" />
        <path
           sodipodi:type="arc"
           style="fill:#ffffff;stroke:#000000;stroke-width:1.28282738;stroke-linecap:round;stroke-linejoin:miter;stroke-miterlimit:4;stroke-opacity:1;stroke-dasharray:none;stroke-dashoffset:0"
           id="path5160-1-9-8-5-2-7-4"
           sodipodi:cx="151.75116"
           sodipodi:cy="88.207176"
           sodipodi:rx="2.6113968"
           sodipodi:ry="2.3212416"
           d="m 154.36256,88.207176 c 0,1.281987 -1.16917,2.321242 -2.6114,2.321242 -1.44223,0 -2.6114,-1.039255 -2.6114,-2.321242 0,-1.281986 1.16917,-2.321241 2.6114,-2.321241 1.44223,0 2.6114,1.039255 2.6114,2.321241 z"
           transform="matrix(1.1041572,0,0,1.2074181,-252.31572,698.90108)" />
        <path
           sodipodi:type="arc"
           style="fill:#ffffff;stroke:#000000;stroke-width:1.28282738;stroke-linecap:round;stroke-linejoin:miter;stroke-miterlimit:4;stroke-opacity:1;stroke-dasharray:none;stroke-dashoffset:0"
           id="path5160-1-9-8-5-2-7-6-2"
           sodipodi:cx="151.75116"
           sodipodi:cy="88.207176"
           sodipodi:rx="2.6113968"
           sodipodi:ry="2.3212416"
           d="m 154.36256,88.207176 c 0,1.281987 -1.16917,2.321242 -2.6114,2.321242 -1.44223,0 -2.6114,-1.039255 -2.6114,-2.321242 0,-1.281986 1.16917,-2.321241 2.6114,-2.321241 1.44223,0 2.6114,1.039255 2.6114,2.321241 z"
           transform="matrix(1.1041572,0,0,1.2074181,-267.92346,698.90108)" />
      </g>
      <g
         transform="translate(-83.978015,9.55077)"
         id="g4777">
        <path
           style="fill:none;stroke:#000000;stroke-width:1.0629921;stroke-linecap:butt;stroke-linejoin:miter;stroke-miterlimit:4;stroke-opacity:1;stroke-dasharray:2.12598425, 2.12598425;stroke-dashoffset:0;marker-end:none"
           d="m -6.3927088,964.22371 0,-120.18505"
           id="path3798-5-6"
           inkscape:path-effect="#path-effect3800-1-2"
           inkscape:original-d="m -6.3927088,964.22371 c 0,-120.18505 0,-120.18505 0,-120.18505"
           inkscape:connector-curvature="0" />
        <path
           sodipodi:type="arc"
           style="fill:#ffffff;stroke:#000000;stroke-width:1.28282738;stroke-linecap:round;stroke-linejoin:miter;stroke-miterlimit:4;stroke-opacity:1;stroke-dasharray:none;stroke-dashoffset:0"
           id="path5160-1-9-8-5-2-8"
           sodipodi:cx="151.75116"
           sodipodi:cy="88.207176"
           sodipodi:rx="2.6113968"
           sodipodi:ry="2.3212416"
           d="m 154.36256,88.207176 c 0,1.281987 -1.16917,2.321242 -2.6114,2.321242 -1.44223,0 -2.6114,-1.039255 -2.6114,-2.321242 0,-1.281986 1.16917,-2.321241 2.6114,-2.321241 1.44223,0 2.6114,1.039255 2.6114,2.321241 z"
           transform="matrix(0,-1.1041572,1.2074181,0,-112.62561,1089.6723)" />
        <path
           sodipodi:type="arc"
           style="fill:#ffffff;stroke:#000000;stroke-width:1.28282738;stroke-linecap:round;stroke-linejoin:miter;stroke-miterlimit:4;stroke-opacity:1;stroke-dasharray:none;stroke-dashoffset:0"
           id="path5160-1-9-8-5-2-7-5"
           sodipodi:cx="151.75116"
           sodipodi:cy="88.207176"
           sodipodi:rx="2.6113968"
           sodipodi:ry="2.3212416"
           d="m 154.36256,88.207176 c 0,1.281987 -1.16917,2.321242 -2.6114,2.321242 -1.44223,0 -2.6114,-1.039255 -2.6114,-2.321242 0,-1.281986 1.16917,-2.321241 2.6114,-2.321241 1.44223,0 2.6114,1.039255 2.6114,2.321241 z"
           transform="matrix(0,-1.1041572,1.2074181,0,-112.62561,1105.2801)" />
        <path
           sodipodi:type="arc"
           style="fill:#ffffff;stroke:#000000;stroke-width:1.28282738;stroke-linecap:round;stroke-linejoin:miter;stroke-miterlimit:4;stroke-opacity:1;stroke-dasharray:none;stroke-dashoffset:0"
           id="path5160-1-9-8-5-2-7-6-7"
           sodipodi:cx="151.75116"
           sodipodi:cy="88.207176"
           sodipodi:rx="2.6113968"
           sodipodi:ry="2.3212416"
           d="m 154.36256,88.207176 c 0,1.281987 -1.16917,2.321242 -2.6114,2.321242 -1.44223,0 -2.6114,-1.039255 -2.6114,-2.321242 0,-1.281986 1.16917,-2.321241 2.6114,-2.321241 1.44223,0 2.6114,1.039255 2.6114,2.321241 z"
           transform="matrix(0,-1.1041572,1.2074181,0,-112.62561,1120.8878)" />
        <path
           sodipodi:type="arc"
           style="fill:#ffffff;stroke:#000000;stroke-width:1.28282738;stroke-linecap:round;stroke-linejoin:miter;stroke-miterlimit:4;stroke-opacity:1;stroke-dasharray:none;stroke-dashoffset:0"
           id="path5160-1-9-8-5-2-1-6"
           sodipodi:cx="151.75116"
           sodipodi:cy="88.207176"
           sodipodi:rx="2.6113968"
           sodipodi:ry="2.3212416"
           d="m 154.36256,88.207176 c 0,1.281987 -1.16917,2.321242 -2.6114,2.321242 -1.44223,0 -2.6114,-1.039255 -2.6114,-2.321242 0,-1.281986 1.16917,-2.321241 2.6114,-2.321241 1.44223,0 2.6114,1.039255 2.6114,2.321241 z"
           transform="matrix(0,-1.1041572,1.2074181,0,-112.62561,1023.8099)" />
        <path
           sodipodi:type="arc"
           style="fill:#ffffff;stroke:#000000;stroke-width:1.28282738;stroke-linecap:round;stroke-linejoin:miter;stroke-miterlimit:4;stroke-opacity:1;stroke-dasharray:none;stroke-dashoffset:0"
           id="path5160-1-9-8-5-2-7-4-1"
           sodipodi:cx="151.75116"
           sodipodi:cy="88.207176"
           sodipodi:rx="2.6113968"
           sodipodi:ry="2.3212416"
           d="m 154.36256,88.207176 c 0,1.281987 -1.16917,2.321242 -2.6114,2.321242 -1.44223,0 -2.6114,-1.039255 -2.6114,-2.321242 0,-1.281986 1.16917,-2.321241 2.6114,-2.321241 1.44223,0 2.6114,1.039255 2.6114,2.321241 z"
           transform="matrix(0,-1.1041572,1.2074181,0,-112.62561,1039.4177)" />
        <path
           sodipodi:type="arc"
           style="fill:#ffffff;stroke:#000000;stroke-width:1.28282738;stroke-linecap:round;stroke-linejoin:miter;stroke-miterlimit:4;stroke-opacity:1;stroke-dasharray:none;stroke-dashoffset:0"
           id="path5160-1-9-8-5-2-7-6-2-8"
           sodipodi:cx="151.75116"
           sodipodi:cy="88.207176"
           sodipodi:rx="2.6113968"
           sodipodi:ry="2.3212416"
           d="m 154.36256,88.207176 c 0,1.281987 -1.16917,2.321242 -2.6114,2.321242 -1.44223,0 -2.6114,-1.039255 -2.6114,-2.321242 0,-1.281986 1.16917,-2.321241 2.6114,-2.321241 1.44223,0 2.6114,1.039255 2.6114,2.321241 z"
           transform="matrix(0,-1.1041572,1.2074181,0,-112.62561,1055.0254)" />
      </g>
      <path
         transform="matrix(0,-1.0937925,1.2087447,0,-196.72064,1079.6662)"
         d="m 154.36256,88.207176 c 0,1.281987 -1.16917,2.321242 -2.6114,2.321242 -1.44223,0 -2.6114,-1.039255 -2.6114,-2.321242 0,-1.281986 1.16917,-2.321241 2.6114,-2.321241 1.44223,0 2.6114,1.039255 2.6114,2.321241 z"
         sodipodi:ry="2.3212416"
         sodipodi:rx="2.6113968"
         sodipodi:cy="88.207176"
         sodipodi:cx="151.75116"
         id="path5160-1-9-8-5-2-1-6-3"
         style="fill:#808080;stroke:#000000;stroke-width:1.28282738;stroke-linecap:round;stroke-linejoin:miter;stroke-miterlimit:4;stroke-opacity:1;stroke-dasharray:none;stroke-dashoffset:0"
         sodipodi:type="arc" />
    </g>
  </g>
</svg>
